<svg width="21" height="18" viewBox="0 0 21 18" fill="none" xmlns="http://www.w3.org/2000/svg">
<path fill-rule="evenodd" clip-rule="evenodd" d="M0.199951 1.20001C0.199951 0.647727 0.647666 0.200012 1.19995 0.200012H4.79995C5.24356 0.200012 5.63415 0.492263 5.75932 0.917846L8.54819 10.4H17.2192L18.5192 5.20001H10.8C10.2477 5.20001 9.79995 4.7523 9.79995 4.20001C9.79995 3.64773 10.2477 3.20001 10.8 3.20001H19.8C20.1079 3.20001 20.3987 3.34188 20.5882 3.5846C20.7777 3.82732 20.8448 4.14381 20.7701 4.44255L18.9701 11.6425C18.8588 12.0877 18.4588 12.4 18 12.4H7.79995C7.35634 12.4 6.96576 12.1078 6.84059 11.6822L4.05171 2.20001H1.19995C0.647666 2.20001 0.199951 1.7523 0.199951 1.20001ZM9.59995 15.6C9.59995 16.9255 8.52544 18 7.19995 18C5.87447 18 4.79995 16.9255 4.79995 15.6C4.79995 14.2745 5.87447 13.2 7.19995 13.2C8.52544 13.2 9.59995 14.2745 9.59995 15.6ZM18 18C19.3254 18 20.4 16.9255 20.4 15.6C20.4 14.2745 19.3254 13.2 18 13.2C16.6745 13.2 15.6 14.2745 15.6 15.6C15.6 16.9255 16.6745 18 18 18Z" fill="#7B8AA2"/>
</svg>
