<svg width="16" height="16" viewBox="0 0 16 16" fill="none" xmlns="http://www.w3.org/2000/svg">
<path fill-rule="evenodd" clip-rule="evenodd" d="M11.8102 10.5569L15.7341 14.4856C16.0849 14.8368 16.0849 15.4074 15.7561 15.7366C15.5807 15.9122 15.3396 16 15.1203 16C14.8792 16 14.66 15.9122 14.4846 15.7366L10.5387 11.8299C9.37691 12.7298 7.97394 13.1687 6.57096 13.1687C4.88301 13.1687 3.21698 12.5322 1.92361 11.2373C-0.641203 8.66941 -0.641203 4.49931 1.92361 1.93141C3.21698 0.636488 4.88301 0 6.57096 0C8.25891 0 9.92495 0.636488 11.2183 1.93141C13.5858 4.27984 13.7831 7.98903 11.8102 10.5569ZM3.19501 9.98628C4.11571 10.8861 5.29947 11.3909 6.59284 11.3909C7.86428 11.3909 9.09188 10.9081 9.99066 9.98628C10.8894 9.06447 11.3936 7.87929 11.3936 6.58436C11.3936 5.28944 10.9114 4.08231 9.99066 3.18244C9.06996 2.28258 7.8862 1.77778 6.59284 1.77778C5.29947 1.77778 4.09379 2.28258 3.19501 3.18244C1.33168 5.06996 1.33168 8.12071 3.19501 9.98628Z" fill="#7B8AA2"/>
</svg>
