<svg width="108" height="108" viewBox="0 0 108 108" fill="none" xmlns="http://www.w3.org/2000/svg">
<g filter="url(#filter0_d)">
<rect x="10" y="8" width="88" height="88" rx="8" fill="white"/>
</g>
<path opacity="0.7" fill-rule="evenodd" clip-rule="evenodd" d="M48.6 39.8C50 42.6 52.4 44.9 55.2 46.4L57.4 44.2C57.7 43.9 58.1 43.8 58.4 44C59.5 44.4 60.7 44.6 62 44.6C62.6 44.6 63 45 63 45.6V49C63 49.6 62.6 50 62 50C52.6 50 45 42.4 45 33C45 32.4 45.4 32 46 32H49.5C50.1 32 50.5 32.4 50.5 33C50.5 34.2 50.7 35.4 51.1 36.6C51.2 36.9 51.1 37.3 50.9 37.6L48.6 39.8Z" fill="#24272C"/>
<path opacity="0.7" d="M51.1504 75.6846C51.0729 76.7555 50.6764 77.5986 49.9609 78.2139C49.25 78.8291 48.3112 79.1367 47.1445 79.1367C45.8685 79.1367 44.8636 78.7083 44.1299 77.8516C43.4007 76.9902 43.0361 75.8099 43.0361 74.3105V73.7021C43.0361 72.7451 43.2048 71.902 43.542 71.1729C43.8792 70.4437 44.36 69.8854 44.9844 69.498C45.6133 69.1061 46.3424 68.9102 47.1719 68.9102C48.3203 68.9102 49.2454 69.2178 49.9473 69.833C50.6491 70.4482 51.0547 71.3118 51.1641 72.4238H49.1133C49.0632 71.7812 48.8831 71.3164 48.5732 71.0293C48.2679 70.7376 47.8008 70.5918 47.1719 70.5918C46.4883 70.5918 45.9756 70.8379 45.6338 71.3301C45.2965 71.8177 45.1234 72.5765 45.1143 73.6064V74.3584C45.1143 75.4339 45.276 76.2201 45.5996 76.7168C45.9277 77.2135 46.4427 77.4619 47.1445 77.4619C47.778 77.4619 48.2497 77.3184 48.5596 77.0312C48.874 76.7396 49.054 76.2907 49.0996 75.6846H51.1504ZM56.6533 79C56.5622 78.8223 56.4961 78.6012 56.4551 78.3369C55.9766 78.8701 55.3545 79.1367 54.5889 79.1367C53.8643 79.1367 53.2627 78.9271 52.7842 78.5078C52.3102 78.0885 52.0732 77.5599 52.0732 76.9219C52.0732 76.138 52.3626 75.5365 52.9414 75.1172C53.5247 74.6979 54.3656 74.486 55.4639 74.4814H56.373V74.0576C56.373 73.7158 56.2842 73.4424 56.1064 73.2373C55.9333 73.0322 55.6576 72.9297 55.2793 72.9297C54.9466 72.9297 54.6846 73.0094 54.4932 73.1689C54.3063 73.3285 54.2129 73.5472 54.2129 73.8252H52.2373C52.2373 73.3968 52.3695 73.0003 52.6338 72.6357C52.8981 72.2712 53.2718 71.9863 53.7549 71.7812C54.238 71.5716 54.7803 71.4668 55.3818 71.4668C56.2933 71.4668 57.0156 71.6969 57.5488 72.1572C58.0866 72.613 58.3555 73.2555 58.3555 74.085V77.291C58.36 77.9928 58.458 78.5238 58.6494 78.8838V79H56.6533ZM55.0195 77.626C55.3112 77.626 55.5801 77.5622 55.8262 77.4346C56.0723 77.3024 56.2546 77.127 56.373 76.9082V75.6367H55.6348C54.6458 75.6367 54.1195 75.9785 54.0557 76.6621L54.0488 76.7783C54.0488 77.0244 54.1354 77.2272 54.3086 77.3867C54.4818 77.5462 54.7188 77.626 55.0195 77.626ZM61.958 79H59.9756V68.5H61.958V79ZM65.6768 79H63.6943V68.5H65.6768V79Z" fill="black"/>
<defs>
<filter id="filter0_d" x="0" y="0" width="108" height="108" filterUnits="userSpaceOnUse" color-interpolation-filters="sRGB">
<feFlood flood-opacity="0" result="BackgroundImageFix"/>
<feColorMatrix in="SourceAlpha" type="matrix" values="0 0 0 0 0 0 0 0 0 0 0 0 0 0 0 0 0 0 127 0"/>
<feOffset dy="2"/>
<feGaussianBlur stdDeviation="5"/>
<feColorMatrix type="matrix" values="0 0 0 0 0 0 0 0 0 0 0 0 0 0 0 0 0 0 0.15 0"/>
<feBlend mode="normal" in2="BackgroundImageFix" result="effect1_dropShadow"/>
<feBlend mode="normal" in="SourceGraphic" in2="effect1_dropShadow" result="shape"/>
</filter>
</defs>
</svg>
