<svg width="18" height="18" viewBox="0 0 18 18" fill="none" xmlns="http://www.w3.org/2000/svg">
<path fill-rule="evenodd" clip-rule="evenodd" d="M13.2865 11.8765L17.7009 16.2963C18.0955 16.6914 18.0955 17.3333 17.7256 17.7037C17.5283 17.9012 17.257 18 17.0104 18C16.7391 18 16.4925 17.9012 16.2952 17.7037L11.8561 13.3086C10.549 14.321 8.97068 14.8148 7.39233 14.8148C5.49338 14.8148 3.6191 14.0988 2.16406 12.642C-0.721353 9.75309 -0.721353 5.06173 2.16406 2.17284C3.6191 0.716049 5.49338 0 7.39233 0C9.29128 0 11.1656 0.716049 12.6206 2.17284C15.2841 4.81481 15.506 8.98765 13.2865 11.8765ZM3.59431 11.2346C4.6301 12.2469 5.96183 12.8148 7.41687 12.8148C8.84724 12.8148 10.2283 12.2716 11.2394 11.2346C12.2506 10.1975 12.8178 8.86419 12.8178 7.4074C12.8178 5.95061 12.2752 4.59259 11.2394 3.58024C10.2036 2.5679 8.87191 2 7.41687 2C5.96183 2 4.60544 2.5679 3.59431 3.58024C1.49807 5.7037 1.49807 9.1358 3.59431 11.2346Z" fill="#7B8AA2"/>
</svg>
